HIERARCHY
ROOT joint_Root
{
	OFFSET 0.0 0.0 0.0
	CHANNELS 6 Xposition Yposition Zposition Zrotation Xrotation Yrotation 
	JOINT Hips
	{
		OFFSET 4.5925 91.4895 -427.239
		CHANNELS 6 Xposition Yposition Zposition Zrotation Xrotation Yrotation 
		JOINT Spine
		{
			OFFSET 15.7357 0.0 0.0
			CHANNELS 6 Xposition Yposition Zposition Zrotation Xrotation Yrotation 
			JOINT Chest
			{
				OFFSET 8.98455 -0.406207 0.0
				CHANNELS 6 Xposition Yposition Zposition Zrotation Xrotation Yrotation 
				JOINT Neck
				{
					OFFSET 16.3773 0.0 0.0
					CHANNELS 6 Xposition Yposition Zposition Zrotation Xrotation Yrotation 
					JOINT Head
					{
						OFFSET 6.45672 0.0 0.0
						CHANNELS 6 Xposition Yposition Zposition Zrotation Xrotation Yrotation 
						End Site
						{
							OFFSET 0.0 0.0 0.0
						}
					}
				}
				JOINT Shoulder_L
				{
					OFFSET 12.9942 -0.242716 4.98039
					CHANNELS 6 Xposition Yposition Zposition Zrotation Xrotation Yrotation 
					JOINT UpperArm_L
					{
						OFFSET 5.34809 0.0 0.0
						CHANNELS 6 Xposition Yposition Zposition Zrotation Xrotation Yrotation 
						JOINT LowerArm_L
						{
							OFFSET 24.3286 1.87007e-05 0.0
							CHANNELS 6 Xposition Yposition Zposition Zrotation Xrotation Yrotation 
							JOINT Hand_L
							{
								OFFSET 22.2916 0.0 0.0
								CHANNELS 6 Xposition Yposition Zposition Zrotation Xrotation Yrotation 
								End Site
								{
									OFFSET 0.0 0.0 0.0
								}
							}
						}
					}
				}
				JOINT Shoulder_R
				{
					OFFSET 12.9945 -0.242716 -4.98039
					CHANNELS 6 Xposition Yposition Zposition Zrotation Xrotation Yrotation 
					JOINT UpperArm_R
					{
						OFFSET -5.34813 0.0 0.0
						CHANNELS 6 Xposition Yposition Zposition Zrotation Xrotation Yrotation 
						JOINT LowerArm_R
						{
							OFFSET -24.3289 0.000322201 0.0
							CHANNELS 6 Xposition Yposition Zposition Zrotation Xrotation Yrotation 
							JOINT Hand_R
							{
								OFFSET -22.2915 -0.000108084 0.0
								CHANNELS 6 Xposition Yposition Zposition Zrotation Xrotation Yrotation 
								End Site
								{
									OFFSET 0.0 0.0 0.0
								}
							}
						}
					}
				}
			}
		}
		JOINT UpperLeg_L
		{
			OFFSET -2.19248 -6.46944 0.0
			CHANNELS 6 Xposition Yposition Zposition Zrotation Xrotation Yrotation 
			JOINT LowerLeg_L
			{
				OFFSET 39.0811 0.0 -1.23785e-05
				CHANNELS 6 Xposition Yposition Zposition Zrotation Xrotation Yrotation 
				JOINT Foot_L
				{
					OFFSET 40.9854 0.0 -1.26872e-05
					CHANNELS 6 Xposition Yposition Zposition Zrotation Xrotation Yrotation 
					JOINT Toes_L
					{
						OFFSET 11.7543 0.0 0.0
						CHANNELS 6 Xposition Yposition Zposition Zrotation Xrotation Yrotation 
						End Site
						{
							OFFSET 0.0 0.0 0.0
						}
					}
				}
			}
		}
		JOINT UpperLeg_R
		{
			OFFSET -2.19251 6.46944 0.0
			CHANNELS 6 Xposition Yposition Zposition Zrotation Xrotation Yrotation 
			JOINT LowerLeg_R
			{
				OFFSET -39.0811 -0.00228153 -0.0401928
				CHANNELS 6 Xposition Yposition Zposition Zrotation Xrotation Yrotation 
				JOINT Foot_R
				{
					OFFSET -40.9854 0.0 0.0
					CHANNELS 6 Xposition Yposition Zposition Zrotation Xrotation Yrotation 
					JOINT Toes_R
					{
						OFFSET -11.7543 0.0 0.0
						CHANNELS 6 Xposition Yposition Zposition Zrotation Xrotation Yrotation 
						End Site
						{
							OFFSET 0.0 0.0 0.0
						}
					}
				}
			}
		}
	}
}
MOTION
Frames:	4
Frame Time:	0.0333333
0.000000 0.000000 0.000000 0.000000 0.000000 -0.000000 -3.799970 88.933100 464.658000 -82.846200 -2.957610 164.128000 15.735700 0.000005 -0.000001 43.029200 81.490500 -40.177300 8.984550 -0.406207 -0.000000 4.250240 -12.510300 6.181250 16.377300 -0.000001 -0.000001 -2.328640 -6.445330 2.641970 6.456720 -0.000001 -0.000000 -7.809440 -0.456548 0.564543 12.994200 -0.242716 4.980390 -88.424900 -4.964850 -72.373600 5.348090 -0.000007 -0.000001 -57.643400 39.815200 -37.927900 24.328600 0.000019 0.000005 9.087390 -5.395360 -120.458000 22.291600 -0.000001 0.000005 7.265850 5.471950 -5.443380 12.994500 -0.242716 -4.980390 90.079900 -0.181701 -66.250600 -5.348130 -0.000001 -0.000004 -69.280200 34.109100 27.253500 -24.328900 0.000322 -0.000009 -13.179900 1.337440 -95.687900 -22.291500 -0.000108 -0.000004 10.509900 5.550010 -8.707610 -2.192480 -6.469440 -0.000000 -172.072000 -13.703100 -0.591439 39.081100 -0.000007 -0.000012 0.024610 -0.043252 29.638900 40.985400 -0.000006 -0.000013 0.693620 10.211700 -52.163500 11.754300 -0.000000 0.000003 -0.195631 -0.637809 -43.881800 -2.192510 6.469440 -0.000001 -167.539000 2.963190 132.071000 -39.081100 -0.002282 -0.040193 -0.042864 0.024796 61.701100 -40.985400 0.000008 0.000006 5.938810 -5.397330 -70.778700 -11.754300 -0.000006 -0.000006 -0.025343 -0.195268 -24.562700
0.000000 0.000000 0.000000 0.000000 0.000000 -0.000000 -4.438920 89.354200 458.079000 -84.681800 -2.038400 165.913000 15.735700 0.000005 -0.000001 45.174500 81.328100 -42.676000 8.984550 -0.406207 -0.000000 4.899320 -12.266700 5.533140 16.377300 -0.000001 -0.000001 -2.188350 -7.053380 3.322050 6.456720 -0.000001 -0.000000 -8.220540 -1.615350 2.115880 12.994200 -0.242716 4.980390 -88.251100 -5.415930 -72.073300 5.348090 -0.000007 -0.000001 -58.716600 43.526600 -35.239100 24.328600 0.000019 0.000005 11.983500 -5.629640 -114.811000 22.291600 -0.000001 0.000005 8.416880 5.430060 -3.943580 12.994500 -0.242716 -4.980390 90.345300 -0.799460 -66.634700 -5.348130 -0.000001 -0.000004 -72.988400 33.614700 27.910600 -24.328900 0.000322 -0.000009 -15.698500 3.137730 -101.013000 -22.291500 -0.000108 -0.000004 10.904600 5.538450 -8.173970 -2.192480 -6.469440 -0.000000 -174.426000 -6.970330 1.725210 39.081100 -0.000007 -0.000012 0.010031 -0.015618 32.710100 40.985400 -0.000006 -0.000013 -0.043343 7.560610 -45.295400 11.754300 -0.000000 0.000003 -0.018239 -0.157344 -23.002200 -2.192510 6.469440 -0.000001 -168.056000 4.834670 135.727000 -39.081100 -0.002282 -0.040193 -0.024538 0.022626 50.840800 -40.985400 0.000008 0.000006 3.412290 -0.666396 -73.871500 -11.754300 -0.000006 -0.000006 -0.025562 -0.196354 -24.607500
0.000000 0.000000 0.000000 0.000000 0.000000 -0.000000 -5.275160 88.599800 451.240000 -86.743000 -0.648112 168.755000 15.735700 0.000005 -0.000001 50.522700 81.267100 -48.560500 8.984550 -0.406207 -0.000000 5.997300 -11.106100 4.513060 16.377300 -0.000001 -0.000001 -2.107660 -7.917590 3.891240 6.456720 -0.000001 -0.000000 -7.895070 -3.488410 3.862320 12.994200 -0.242716 4.980390 -88.278900 -5.214940 -71.706000 5.348090 -0.000007 -0.000001 -59.722600 46.129000 -32.292400 24.328600 0.000019 0.000005 14.937700 -5.060100 -108.299000 22.291600 -0.000001 0.000005 8.386890 5.421280 -3.639650 12.994500 -0.242716 -4.980390 90.002400 -0.005295 -67.574800 -5.348130 -0.000001 -0.000004 -75.043500 33.820700 26.947200 -24.328900 0.000322 -0.000009 -17.888600 5.366590 -106.157000 -22.291500 -0.000108 -0.000004 11.112500 5.537210 -8.116070 -2.192480 -6.469440 -0.000000 -177.819000 -3.992810 1.700450 39.081100 -0.000007 -0.000012 -0.028956 0.029125 44.836200 40.985400 -0.000006 -0.000013 -1.243660 -0.396781 -43.383800 11.754300 -0.000000 0.000003 -0.010066 -0.104137 -20.819800 -2.192510 6.469440 -0.000001 -168.839000 7.850410 140.589000 -39.081100 -0.002282 -0.040193 -0.051729 0.056335 44.310700 -40.985400 0.000008 0.000006 0.118006 3.549500 -75.391500 -11.754300 -0.000006 -0.000006 -0.026287 -0.199910 -24.754700
0.000000 0.000000 0.000000 0.000000 0.000000 -0.000000 -5.927960 87.016500 444.528000 -87.927400 0.605665 171.243000 15.735700 0.000005 -0.000001 58.187400 81.329600 -56.464300 8.984550 -0.406207 -0.000000 7.179090 -9.118080 4.021520 16.377300 -0.000001 -0.000001 -1.524740 -8.717800 4.430990 6.456720 -0.000001 -0.000000 -8.304140 -5.616340 5.898160 12.994200 -0.242716 4.980390 -88.787300 -3.627440 -71.500700 5.348090 -0.000007 -0.000001 -59.538400 47.428000 -29.126900 24.328600 0.000019 0.000005 18.337400 -4.064520 -102.075000 22.291600 -0.000001 0.000005 7.140990 5.424750 -3.764170 12.994500 -0.242716 -4.980390 89.014600 2.594650 -69.184900 -5.348130 -0.000001 -0.000004 -74.483200 34.235500 22.915200 -24.328900 0.000322 -0.000009 -17.548300 6.825280 -110.597000 -22.291500 -0.000108 -0.000004 11.791200 5.545360 -8.488420 -2.192480 -6.469440 -0.000000 -179.401000 -4.277130 -2.376330 39.081100 -0.000007 -0.000012 -0.078834 0.040014 63.092000 40.985400 -0.000006 -0.000013 -0.752553 -4.455010 -43.003400 11.754300 -0.000000 0.000003 -0.010330 -0.106100 -20.900100 -2.192510 6.469440 -0.000001 -168.669000 9.834900 143.908000 -39.081100 -0.002282 -0.040193 -0.010244 0.013722 44.553300 -40.985400 0.000008 0.000006 9.575400 2.344610 -69.025900 -11.754300 -0.000006 -0.000006 -0.015131 -0.138641 -22.229800
